<?xml version="1.0" encoding="utf-8"?>
<!-- Generator: Adobe Illustrator 16.0.0, SVG Export Plug-In . SVG Version: 6.00 Build 0)  -->
<!DOCTYPE svg PUBLIC "-//W3C//DTD SVG 1.1//EN" "http://www.w3.org/Graphics/SVG/1.1/DTD/svg11.dtd">
<svg version="1.1" xmlns="http://www.w3.org/2000/svg" xmlns:xlink="http://www.w3.org/1999/xlink" x="0px" y="0px"
	 width="300px" height="300px" viewBox="0 0 300 300" enable-background="new 0 0 300 300"
	 xml:space="preserve">
	<g transform="translate(150, 150)">
		<g class="base">
			<circle cx="0" cy="0" r="150"/>
		</g>
		<g class="hands">
			<line class="second" fill="none" stroke-width="2" stroke-linecap="round" stroke-miterlimit="10" x1="0" y1="20" x2="0" y2="-130"/>
			<line class="minute" fill="none" stroke-width="6" stroke-linecap="round" stroke-miterlimit="10" x1="0" y1="10" x2="0" y2="-120"/>
			<line class="hour" fill="none" stroke-width="8" stroke-linecap="round" stroke-miterlimit="10" x1="0" y1="10" x2="0" y2="-70"/>
		</g>
		<g class="sec">
			<circle cx="0" cy="-135" r="4" transform="rotate(0)"/>
			<circle cx="0" cy="-135" r="2.5" transform="rotate(6)"/>
			<circle cx="0" cy="-135" r="2.5" transform="rotate(12)"/>
			<circle cx="0" cy="-135" r="2.5" transform="rotate(18)"/>
			<circle cx="0" cy="-135" r="2.5" transform="rotate(24)"/>

			<circle cx="0" cy="-135" r="4" transform="rotate(30)"/>
			<circle cx="0" cy="-135" r="2.5" transform="rotate(36)"/>
			<circle cx="0" cy="-135" r="2.5" transform="rotate(42)"/>
			<circle cx="0" cy="-135" r="2.5" transform="rotate(48)"/>
			<circle cx="0" cy="-135" r="2.5" transform="rotate(54)"/>

			<circle cx="0" cy="-135" r="4" transform="rotate(60)"/>
			<circle cx="0" cy="-135" r="2.5" transform="rotate(66)"/>
			<circle cx="0" cy="-135" r="2.5" transform="rotate(72)"/>
			<circle cx="0" cy="-135" r="2.5" transform="rotate(78)"/>
			<circle cx="0" cy="-135" r="2.5" transform="rotate(84)"/>

			<circle cx="0" cy="-135" r="4" transform="rotate(90)"/>
			<circle cx="0" cy="-135" r="2.5" transform="rotate(96)"/>
			<circle cx="0" cy="-135" r="2.5" transform="rotate(102)"/>
			<circle cx="0" cy="-135" r="2.5" transform="rotate(108)"/>
			<circle cx="0" cy="-135" r="2.5" transform="rotate(114)"/>

			<circle cx="0" cy="-135" r="4" transform="rotate(120)"/>
			<circle cx="0" cy="-135" r="2.5" transform="rotate(126)"/>
			<circle cx="0" cy="-135" r="2.5" transform="rotate(132)"/>
			<circle cx="0" cy="-135" r="2.5" transform="rotate(138)"/>
			<circle cx="0" cy="-135" r="2.5" transform="rotate(144)"/>

			<circle cx="0" cy="-135" r="4" transform="rotate(150)"/>
			<circle cx="0" cy="-135" r="2.5" transform="rotate(156)"/>
			<circle cx="0" cy="-135" r="2.5" transform="rotate(162)"/>
			<circle cx="0" cy="-135" r="2.5" transform="rotate(168)"/>
			<circle cx="0" cy="-135" r="2.5" transform="rotate(174)"/>

			<circle cx="0" cy="-135" r="4" transform="rotate(180)"/>
			<circle cx="0" cy="-135" r="2.5" transform="rotate(186)"/>
			<circle cx="0" cy="-135" r="2.5" transform="rotate(192)"/>
			<circle cx="0" cy="-135" r="2.5" transform="rotate(198)"/>
			<circle cx="0" cy="-135" r="2.5" transform="rotate(204)"/>

			<circle cx="0" cy="-135" r="4" transform="rotate(210)"/>
			<circle cx="0" cy="-135" r="2.5" transform="rotate(216)"/>
			<circle cx="0" cy="-135" r="2.5" transform="rotate(222)"/>
			<circle cx="0" cy="-135" r="2.5" transform="rotate(228)"/>
			<circle cx="0" cy="-135" r="2.5" transform="rotate(234)"/>

			<circle cx="0" cy="-135" r="4" transform="rotate(240)"/>
			<circle cx="0" cy="-135" r="2.5" transform="rotate(246)"/>
			<circle cx="0" cy="-135" r="2.5" transform="rotate(252)"/>
			<circle cx="0" cy="-135" r="2.5" transform="rotate(258)"/>
			<circle cx="0" cy="-135" r="2.5" transform="rotate(264)"/>

			<circle cx="0" cy="-135" r="4" transform="rotate(270)"/>
			<circle cx="0" cy="-135" r="2.5" transform="rotate(276)"/>
			<circle cx="0" cy="-135" r="2.5" transform="rotate(282)"/>
			<circle cx="0" cy="-135" r="2.5" transform="rotate(288)"/>
			<circle cx="0" cy="-135" r="2.5" transform="rotate(294)"/>

			<circle cx="0" cy="-135" r="4" transform="rotate(300)"/>
			<circle cx="0" cy="-135" r="2.5" transform="rotate(306)"/>
			<circle cx="0" cy="-135" r="2.5" transform="rotate(312)"/>
			<circle cx="0" cy="-135" r="2.5" transform="rotate(318)"/>
			<circle cx="0" cy="-135" r="2.5" transform="rotate(324)"/>

			<circle cx="0" cy="-135" r="4" transform="rotate(330)"/>
			<circle cx="0" cy="-135" r="2.5" transform="rotate(336)"/>
			<circle cx="0" cy="-135" r="2.5" transform="rotate(342)"/>
			<circle cx="0" cy="-135" r="2.5" transform="rotate(348)"/>
			<circle cx="0" cy="-135" r="2.5" transform="rotate(354)"/>
		</g>
	</g>
</svg>
