<?xml version="1.0" encoding="utf-8"?>
<!-- Generator: Adobe Illustrator 16.0.0, SVG Export Plug-In . SVG Version: 6.00 Build 0)  -->
<!DOCTYPE svg PUBLIC "-//W3C//DTD SVG 1.1//EN" "http://www.w3.org/Graphics/SVG/1.1/DTD/svg11.dtd">
<svg version="1.1" id="レイヤー_1" xmlns="http://www.w3.org/2000/svg" xmlns:xlink="http://www.w3.org/1999/xlink" x="0px"
	 y="0px" width="300px" height="400px" viewBox="0 0 300 400" enable-background="new 0 0 300 400" xml:space="preserve">
<g>
	<path fill="#FF3300" d="M41.637,66.119l6.812-5.581l4.724,8.876l-3.104,2.543l-1.878-1.274l-0.105,0.086
		c-0.025,0.899-0.198,1.789-0.519,2.667s-0.98,1.727-1.98,2.545c-0.772,0.632-1.617,1.111-2.535,1.439
		c-0.918,0.328-1.88,0.441-2.885,0.342c-1.005-0.1-2.041-0.46-3.106-1.082c-1.066-0.621-2.116-1.563-3.15-2.826
		c-1.12-1.368-1.973-2.837-2.558-4.41c-0.584-1.572-0.841-3.171-0.768-4.799c0.073-1.627,0.518-3.23,1.335-4.808
		c0.817-1.578,2.067-3.056,3.75-4.436c1.297-1.063,2.55-1.84,3.759-2.333c1.208-0.492,2.393-0.906,3.554-1.242l3.181,5.921
		l-4.444,3.642c-0.141-0.207-0.301-0.457-0.481-0.749c-0.181-0.292-0.38-0.589-0.6-0.893s-0.435-0.603-0.647-0.898
		c-0.212-0.294-0.405-0.547-0.577-0.758c-0.115-0.14-0.257-0.295-0.425-0.465c-0.168-0.169-0.36-0.313-0.573-0.431
		c-0.214-0.118-0.438-0.176-0.671-0.175c-0.233,0.001-0.482,0.109-0.745,0.325c-0.456,0.374-0.718,0.903-0.786,1.589
		c-0.068,0.686,0.004,1.462,0.216,2.329c0.211,0.867,0.531,1.784,0.958,2.753s0.9,1.922,1.419,2.859
		c0.519,0.938,1.059,1.829,1.619,2.673c0.561,0.845,1.078,1.557,1.552,2.135c0.144,0.175,0.332,0.387,0.565,0.636
		c0.232,0.249,0.502,0.461,0.807,0.636c0.305,0.176,0.625,0.28,0.959,0.313s0.677-0.094,1.028-0.381
		c0.579-0.474,0.881-1.249,0.907-2.326c0.026-1.076-0.423-2.466-1.35-4.169l-2.209,1.81L41.637,66.119z"/>
	<path fill="#FF3300" d="M55.978,49.612c2.28-1.441,4.192-2.086,5.735-1.935c1.625,0.153,3.055,1.207,4.29,3.161
		c0.763,1.207,1.249,2.422,1.458,3.644c0.209,1.222,0.149,2.379-0.179,3.472c-0.682,2.147-2.402,4.092-5.161,5.835
		c-2.357,1.489-4.328,2.105-5.913,1.846c-1.685-0.249-3.121-1.312-4.308-3.19c-0.787-1.246-1.247-2.536-1.381-3.873
		c-0.134-1.336,0.066-2.642,0.601-3.919C51.925,52.83,53.544,51.149,55.978,49.612z M60.943,61.798
		c0.479-0.303,0.726-0.834,0.742-1.595c0.016-0.76-0.117-1.595-0.396-2.505c-0.28-0.909-0.63-1.814-1.051-2.714
		s-0.826-1.657-1.213-2.27c-0.339-0.536-0.649-0.91-0.93-1.122c-0.281-0.211-0.594-0.208-0.939,0.01
		c-0.517,0.327-0.787,0.887-0.81,1.678c-0.022,0.792,0.093,1.644,0.348,2.555c0.254,0.912,0.583,1.804,0.986,2.675
		c0.403,0.872,0.762,1.556,1.077,2.055C59.543,61.811,60.272,62.222,60.943,61.798z"/>
	<path fill="#FF3300" d="M64.665,35.626l6.167-3.175l3.461,16.23L70,50.892L64.665,35.626z M70.756,55.703
		c-0.218-0.423-0.322-0.848-0.312-1.274s0.104-0.824,0.283-1.197c0.178-0.372,0.425-0.709,0.741-1.013
		c0.315-0.302,0.675-0.558,1.078-0.765c0.745-0.384,1.469-0.527,2.169-0.429s1.243,0.521,1.627,1.266
		c0.218,0.423,0.326,0.845,0.327,1.266c0,0.421-0.089,0.817-0.268,1.189c-0.178,0.373-0.425,0.71-0.741,1.013
		c-0.316,0.302-0.685,0.563-1.108,0.781c-0.746,0.384-1.469,0.527-2.169,0.429S71.14,56.449,70.756,55.703z"/>
	<path fill="#FF3300" d="M84.076,47.962l5.047-18.784l-8.048,2.94l-0.408-2.603l15.777-5.763l0.704,2.82l-4.882,18.94l8.399-3.068
		l0.439,2.59l-16.543,6.043L84.076,47.962z"/>
	<path fill="#FF3300" d="M107.897,36.179c0.029,0.506,0.082,0.983,0.155,1.432c0.074,0.449,0.153,0.85,0.239,1.202
		c0.048,0.198,0.112,0.416,0.193,0.653c0.081,0.237,0.185,0.451,0.313,0.641c0.128,0.191,0.281,0.34,0.458,0.449
		c0.178,0.109,0.399,0.13,0.664,0.066c0.198-0.048,0.408-0.169,0.629-0.362c0.221-0.194,0.429-0.442,0.624-0.746
		s0.365-0.66,0.511-1.069c0.146-0.408,0.231-0.849,0.256-1.322l5.419-1.314l-0.001,3.744c-0.372,0.394-0.819,0.758-1.344,1.096
		c-0.525,0.337-1.091,0.644-1.701,0.92c-0.61,0.276-1.238,0.521-1.886,0.737s-1.269,0.396-1.863,0.54
		c-1.102,0.268-2.15,0.417-3.145,0.448c-0.995,0.032-1.904-0.109-2.727-0.423c-0.823-0.313-1.535-0.822-2.137-1.528
		c-0.603-0.705-1.048-1.653-1.337-2.842c-0.262-1.079-0.348-2.178-0.257-3.296s0.44-2.176,1.049-3.176
		c0.609-0.999,1.532-1.905,2.77-2.719c1.237-0.813,2.869-1.465,4.896-1.957c2.202-0.534,3.943-0.595,5.221-0.182
		c1.278,0.413,2.093,1.346,2.446,2.8c0.145,0.595,0.212,1.26,0.205,1.997c-0.008,0.737-0.129,1.39-0.364,1.96L107.897,36.179z
		 M111.338,31.181c-0.166-0.683-0.388-1.118-0.667-1.308c-0.279-0.188-0.573-0.246-0.881-0.171c-0.353,0.085-0.649,0.28-0.891,0.583
		c-0.241,0.304-0.436,0.678-0.585,1.122c-0.149,0.445-0.262,0.938-0.34,1.482c-0.078,0.544-0.116,1.107-0.115,1.69l3.767-0.914
		c-0.02-0.275-0.043-0.561-0.068-0.858c-0.015-0.253-0.041-0.526-0.077-0.821C111.444,31.691,111.397,31.423,111.338,31.181z"/>
	<path fill="#FF3300" d="M127.293,26.791c0.417-0.508,0.894-0.989,1.432-1.444c0.479-0.378,1.05-0.746,1.714-1.102
		c0.664-0.356,1.423-0.587,2.278-0.692c1.169-0.144,2.174,0.035,3.012,0.537c0.838,0.502,1.322,1.271,1.449,2.305
		c0.036,0.292,0.046,0.651,0.03,1.075c-0.016,0.425-0.042,0.868-0.076,1.328c-0.034,0.461-0.074,0.929-0.118,1.402
		s-0.078,0.895-0.101,1.263l-0.606,6.755l-6.85,0.845l0.77-9.036c0.009-0.297,0.028-0.603,0.059-0.915
		c0.03-0.312,0.03-0.591-0.001-0.839c-0.042-0.337-0.16-0.602-0.355-0.795c-0.195-0.193-0.461-0.269-0.799-0.227
		c-0.405,0.05-0.775,0.245-1.11,0.583c-0.335,0.338-0.592,0.621-0.769,0.849l-0.933,10.769l-6.884,0.849l1.281-14.889l5.5-0.678
		l0.874,2.085L127.293,26.791z"/>
	<path fill="#FF3300" d="M139.705,35.844c-0.016-0.476,0.071-0.904,0.262-1.285c0.191-0.38,0.447-0.701,0.767-0.961
		c0.32-0.26,0.687-0.46,1.102-0.599c0.415-0.139,0.849-0.216,1.302-0.232c0.837-0.029,1.553,0.151,2.145,0.539
		c0.592,0.388,0.902,1.001,0.931,1.839c0.016,0.476-0.066,0.904-0.246,1.284s-0.43,0.701-0.75,0.961
		c-0.32,0.261-0.688,0.46-1.102,0.599c-0.415,0.139-0.86,0.217-1.335,0.233c-0.838,0.029-1.553-0.151-2.145-0.539
		C140.044,37.295,139.734,36.682,139.705,35.844z M142.771,15.088l6.932-0.237l-3.801,16.153l-4.825,0.166L142.771,15.088z"/>
	<path fill="#FF3300" d="M167.834,28.889l8.764,0.858l-2.924,9.621l-3.992-0.391l-0.432-2.229l-0.135-0.013
		c-0.654,0.619-1.404,1.126-2.25,1.522c-0.848,0.395-1.914,0.53-3.199,0.404c-0.994-0.097-1.93-0.354-2.813-0.771
		c-0.881-0.417-1.643-1.015-2.283-1.795s-1.121-1.767-1.436-2.959c-0.316-1.192-0.395-2.601-0.234-4.225
		c0.172-1.759,0.605-3.402,1.303-4.928c0.695-1.526,1.645-2.839,2.846-3.94c1.199-1.101,2.646-1.921,4.34-2.461
		s3.621-0.705,5.787-0.492c1.67,0.164,3.105,0.498,4.309,1.003c1.203,0.505,2.334,1.048,3.395,1.63l-1.93,6.439l-5.719-0.561
		c0.047-0.246,0.109-0.536,0.188-0.87s0.146-0.686,0.207-1.056c0.059-0.37,0.117-0.734,0.174-1.093
		c0.059-0.358,0.102-0.673,0.127-0.944c0.018-0.18,0.027-0.39,0.027-0.629c0.002-0.239-0.033-0.476-0.102-0.71
		c-0.068-0.234-0.186-0.433-0.35-0.598c-0.168-0.165-0.42-0.263-0.758-0.296c-0.586-0.058-1.146,0.133-1.678,0.57
		c-0.533,0.438-1.031,1.039-1.492,1.801c-0.463,0.764-0.885,1.639-1.266,2.626c-0.381,0.987-0.719,1.996-1.014,3.026
		s-0.541,2.042-0.742,3.036c-0.199,0.994-0.336,1.863-0.408,2.607c-0.021,0.226-0.039,0.509-0.049,0.85
		c-0.012,0.34,0.029,0.681,0.121,1.02c0.092,0.339,0.246,0.639,0.459,0.899c0.215,0.26,0.547,0.412,0.998,0.457
		c0.744,0.073,1.506-0.263,2.285-1.006c0.777-0.744,1.441-2.045,1.988-3.905l-2.844-0.279L167.834,28.889z"/>
	<path fill="#FF3300" d="M189.656,27.336c2.631,0.592,4.439,1.486,5.424,2.684c1.043,1.257,1.309,3.013,0.803,5.269
		c-0.314,1.393-0.828,2.596-1.543,3.608c-0.717,1.013-1.576,1.789-2.58,2.33c-2,1.037-4.592,1.198-7.775,0.481
		c-2.721-0.611-4.551-1.568-5.488-2.872c-1.018-1.367-1.281-3.134-0.795-5.302c0.324-1.437,0.91-2.676,1.76-3.716
		c0.85-1.04,1.914-1.823,3.195-2.349C184.514,26.75,186.846,26.705,189.656,27.336z M184.557,39.467
		c0.553,0.125,1.104-0.077,1.652-0.604c0.549-0.527,1.045-1.211,1.49-2.052c0.443-0.841,0.836-1.729,1.174-2.664
		s0.586-1.755,0.746-2.463c0.139-0.619,0.184-1.103,0.135-1.451c-0.051-0.348-0.273-0.567-0.672-0.656
		c-0.598-0.134-1.184,0.071-1.76,0.615c-0.574,0.544-1.096,1.229-1.559,2.054c-0.465,0.825-0.863,1.688-1.193,2.589
		s-0.561,1.64-0.689,2.215C183.559,38.488,183.783,39.293,184.557,39.467z"/>
	<path fill="#FF3300" d="M195.816,42.093c0.145-0.453,0.371-0.827,0.68-1.121s0.656-0.509,1.047-0.647
		c0.389-0.137,0.801-0.201,1.238-0.192c0.438,0.01,0.873,0.083,1.305,0.221c0.799,0.256,1.41,0.666,1.838,1.231
		c0.426,0.565,0.51,1.247,0.254,2.045c-0.145,0.453-0.365,0.829-0.664,1.126c-0.297,0.297-0.641,0.515-1.029,0.652
		c-0.389,0.138-0.803,0.202-1.24,0.192c-0.438-0.01-0.883-0.086-1.336-0.231c-0.799-0.256-1.41-0.666-1.836-1.231
		S195.561,42.892,195.816,42.093z M205.703,23.589l6.605,2.115l-9.027,13.924l-4.598-1.472L205.703,23.589z"/>
	<path fill="#FF3300" d="M224.619,45.065l7.951,3.785l-6.018,8.056l-3.623-1.725l0.352-2.242l-0.123-0.059
		c-0.824,0.36-1.703,0.583-2.633,0.667c-0.932,0.084-1.98-0.152-3.146-0.707c-0.9-0.429-1.695-0.989-2.383-1.68
		c-0.688-0.691-1.199-1.513-1.537-2.464c-0.338-0.952-0.453-2.042-0.346-3.271s0.514-2.58,1.215-4.054
		c0.76-1.596,1.727-2.994,2.898-4.193c1.174-1.198,2.512-2.111,4.016-2.739c1.504-0.627,3.143-0.907,4.918-0.84
		c1.775,0.067,3.646,0.568,5.611,1.503c1.514,0.721,2.752,1.523,3.711,2.407c0.961,0.884,1.84,1.779,2.639,2.687l-4.002,5.4
		l-5.188-2.47c0.127-0.215,0.283-0.467,0.471-0.754s0.371-0.595,0.553-0.923c0.182-0.328,0.359-0.651,0.537-0.969
		c0.176-0.317,0.322-0.599,0.439-0.845c0.078-0.164,0.158-0.358,0.24-0.583c0.08-0.225,0.129-0.458,0.145-0.702
		s-0.025-0.471-0.127-0.682c-0.1-0.211-0.303-0.389-0.611-0.536c-0.531-0.253-1.123-0.264-1.771-0.034
		c-0.65,0.23-1.322,0.626-2.016,1.187c-0.693,0.561-1.387,1.241-2.082,2.041c-0.693,0.799-1.354,1.633-1.98,2.502
		c-0.627,0.869-1.203,1.737-1.73,2.604c-0.525,0.867-0.947,1.638-1.27,2.313c-0.098,0.205-0.209,0.465-0.334,0.782
		c-0.127,0.316-0.203,0.65-0.232,1c-0.029,0.351,0.014,0.684,0.125,1.001c0.113,0.317,0.375,0.573,0.783,0.768
		c0.676,0.321,1.506,0.265,2.492-0.17c0.984-0.435,2.049-1.434,3.195-2.997l-2.578-1.228L224.619,45.065z"/>
	<path fill="#FF3300" d="M245.648,51.007c2.275,1.45,3.672,2.906,4.191,4.367c0.555,1.536,0.209,3.278-1.033,5.227
		c-0.768,1.204-1.66,2.161-2.678,2.87c-1.018,0.709-2.09,1.147-3.217,1.315c-2.234,0.297-4.725-0.432-7.479-2.187
		c-2.35-1.499-3.746-3.021-4.186-4.565c-0.492-1.63-0.141-3.383,1.053-5.256c0.793-1.242,1.764-2.208,2.918-2.898
		c1.15-0.69,2.418-1.064,3.801-1.125C241.012,48.709,243.221,49.459,245.648,51.007z M236.734,60.686
		c0.479,0.305,1.064,0.302,1.76-0.007c0.693-0.31,1.393-0.785,2.098-1.424c0.703-0.64,1.373-1.342,2.008-2.106
		c0.635-0.765,1.148-1.452,1.539-2.064c0.34-0.535,0.547-0.975,0.619-1.319c0.07-0.344-0.064-0.626-0.41-0.845
		c-0.516-0.329-1.137-0.335-1.861-0.019c-0.727,0.317-1.449,0.785-2.166,1.402c-0.717,0.619-1.383,1.295-2,2.031
		s-1.084,1.352-1.4,1.849C236.127,59.426,236.066,60.259,236.734,60.686z"/>
	<path fill="#FF3300" d="M246.455,66.992c0.289-0.377,0.629-0.652,1.02-0.824c0.391-0.172,0.791-0.257,1.203-0.254
		c0.412,0.002,0.822,0.082,1.232,0.239c0.408,0.157,0.791,0.373,1.15,0.649c0.664,0.511,1.102,1.105,1.313,1.781
		c0.209,0.676,0.057,1.346-0.453,2.011c-0.291,0.377-0.627,0.655-1.006,0.834c-0.381,0.179-0.779,0.267-1.191,0.265
		s-0.822-0.083-1.23-0.239c-0.408-0.157-0.801-0.38-1.18-0.67c-0.664-0.512-1.102-1.105-1.311-1.781S245.943,67.657,246.455,66.992z
		 M262.027,52.934l5.498,4.228l-13.211,10.041l-3.828-2.943L262.027,52.934z"/>
</g>
</svg>
