<?xml version="1.0" encoding="utf-8"?>
<!-- Generator: Adobe Illustrator 19.1.0, SVG Export Plug-In . SVG Version: 6.00 Build 0)  -->
<svg version="1.1" id="svg--saru" xmlns="http://www.w3.org/2000/svg" xmlns:xlink="http://www.w3.org/1999/xlink" x="0px" y="0px"
	 viewBox="0 68 283.5 283.5" style="enable-background:new 0 68 283.5 283.5;" xml:space="preserve">
<style type="text/css">
	.st0{fill:#621614;}
	.st1{fill:#FACEA3;}
	.st2{fill:#040000;}
	.st3{fill:#946525;}
	.st4{fill:url(#SVGID_1_);}
	.st5{fill:url(#SVGID_2_);}
	.st6{fill:none;stroke:#231815;stroke-miterlimit:10;}
	.st7{display:none;}
	.st8{display:inline;fill:#040000;}
	.st9{display:inline;fill:#FFFFFF;}
</style>
<path class="st0" d="M212.1,139.9c-4.9-6-12.1-10.4-21.5-13.3c-9.3-2.8-17.9-4.6-25.9-5.4c-11.5-1.2-22.9-0.8-34.3,1.2
	c-8.6,1.5-16.5,3.5-23.6,6l0,0c-7.2,2.5-14.5,7-21.9,13.4c-7.4,6.4-12.9,13.5-16.6,21.1c-3.6,7.5-5.5,14.9-5.6,22.4
	c-1.1-0.8-2.4-1.5-3.7-2.1c-4.5-2.4-8.5-3-12-2c-0.2,0.1-0.3,0.1-0.4,0.3c-3.5,2.7-5.5,7.3-5.8,13.6l0,0c-0.5,5,0.6,9.8,3.1,14.3
	v-0.1c2.4,5,5.6,8.5,9.6,10.6l0,0c3.5,1.7,6.7,2,9.8,0.9c-0.7,2.9-1.9,5.8-3.5,8.6c-3.9,6.9-5.3,16-4.3,27.6c0.4,4.8,2,9,4.7,12.8
	l0,0c0.4,0.5,0.8,1,1.3,1.3c3.1,6,8,11.2,14.6,15.6c9.4,6.4,19.1,10.3,28.9,11.7c13.4,1.9,27.1-0.8,41.2-8.2
	c0.7-0.4,1.4-0.7,2.2-1.1l0,0c4.8-2.4,9.8-4.5,14.9-6.3c26.7,12,46.1,5.4,58.3-19.6l0,0c0.5-1,0.9-2,1.3-3.1c0,0,0.1-0.1,0.1-0.2
	c1.5-4,2.7-8,3.6-12.2c1.7-8.1,1.8-16.3,0.4-24.5l0,0c-0.3-2.1-0.9-4.2-1.7-6.1c-0.1-0.2-0.2-0.4-0.3-0.6c1.9,0.1,3.9-0.4,5.9-1.4
	c0,0,0,0,0.1,0c3.7-2,6.7-5.3,8.9-9.9v0.1c2.4-4.2,3.3-8.6,2.9-13.3l0,0c-0.4-5.8-2.2-10-5.4-12.6c-0.1-0.1-0.3-0.2-0.4-0.3
	c-3.2-0.9-6.8-0.4-11,1.7c0-3-0.2-5.8-0.5-8.4l0,0c-0.6-4.9-1.7-10.1-3.4-15.6C220.3,151.6,217,145.9,212.1,139.9 M189.8,129.1
	c8.9,2.7,15.7,6.9,20.3,12.5c4.6,5.7,7.8,11.1,9.4,16.3c1.6,5.3,2.7,10.3,3.3,15.1l0,0c0.4,3.1,0.5,6.5,0.5,10.1v0.1
	c0,1.9-0.2,3.9-0.3,6c-0.5,5.9-2.3,11.7-5.7,17.3c-0.1,0.2-0.2,0.4-0.2,0.7s0.1,0.5,0.2,0.7c1.7,2.5,3.2,5.1,4.4,7.8l0,0
	c0,0.1,0.1,0.1,0.1,0.1c0.4,0.8,0.7,1.6,1,2.5c0.7,1.8,1.2,3.6,1.5,5.6l0,0c1,5.7,1.2,11.4,0.6,17c-1.4-13.6-6.5-23.5-15.4-29.7
	c0.2-0.5,0.4-1.1,0.5-1.7c3.4-13.9,2.3-24.9-3.2-33.1c-2.3-4.5-5.6-8.1-9.9-10.8l0,0c-3.8-2.4-8.1-3.6-12.7-3.6
	c-10.2,0-22.5,6.3-36.7,18.8c-9.8-12.1-27.2-15-52.2-8.8l0,0l-5.1,1.4c-5,1.4-8.6,4.6-10.8,9.4c-7,14.9-6.8,27.4,0.8,37.5
	c-4.4,1.2-8.3,2.9-11.4,5.2c-5,3.6-8.4,8.7-10.2,15.2c0.7-3.7,1.9-7.1,3.5-9.9c2.1-3.6,3.4-7.4,4.2-11.3c3-2.1,5-5.4,5.9-9.9l0,0
	c0.9-5.2,0.1-10.3-2.4-15.4c-1.3-2.6-2.7-4.7-4.4-6.5c0-0.5,0-1,0-1.5c0-7.4,1.8-14.8,5.3-22.2c3.6-7.4,8.9-14.1,16-20.3
	s14.1-10.5,21-12.9l0,0c7-2.4,14.7-4.4,23.2-5.9c11.1-2,22.3-2.4,33.6-1.2C172.2,124.5,180.7,126.3,189.8,129.1 M204.6,177.7
	c0,0.1,0.1,0.1,0.1,0.1c5.2,7.7,6.1,18.1,2.9,31.1c-0.2,0.8-0.4,1.6-0.7,2.3c-0.1,0.2-0.1,0.3-0.1,0.5l0,0c0,0.2,0.1,0.4,0.2,0.6
	c0.1,0.2,0.2,0.3,0.4,0.4c9.5,6.3,14.6,16.9,15.4,31.7c0.2,4.8-0.3,9.3-1.8,13.6l-0.3,0.8c0,0.1-0.1,0.2-0.1,0.3v0.1
	c-0.4,1-0.8,2-1.3,3l0,0c-11.6,23.7-30.1,29.7-55.5,18.1c-0.3-0.1-0.6-0.1-0.9,0c-5.4,1.9-10.6,4.1-15.7,6.6l0,0
	c-0.7,0.4-1.5,0.7-2.2,1.1c-13.6,7.1-26.8,9.8-39.7,7.9c-9.5-1.3-18.7-5.1-27.8-11.3c-6.3-4.3-10.9-9.3-13.9-15v-0.1l0,0
	c-2.9-5.7-4.2-12.2-3.9-19.3c0.5-10.2,4-17.8,10.6-22.6c3.4-2.4,7.5-4.2,12.4-5.2c0.3-0.1,0.6-0.2,0.7-0.4c0.2-0.2,0.3-0.5,0.3-0.8
	s-0.1-0.6-0.3-0.8c-8-9.7-8.6-21.8-1.7-36.4c1.9-4.1,5-6.8,9.2-8l5.1-1.4c24.4-6.1,41.1-3.1,50.3,9c0.1,0.2,0.3,0.3,0.5,0.4
	s0.5,0.1,0.7,0.1s0.4-0.1,0.6-0.3c14.1-12.6,26.2-18.9,36.1-19.1c4.1-0.1,7.9,1,11.3,3.1l0,0C199.5,170.3,202.5,173.6,204.6,177.7
	 M225.5,189.4c0.1-1.9,0.2-3.7,0.3-5.4c0.3-0.1,0.6-0.3,0.8-0.4c0,0,0,0,0.1,0c3.5-1.8,6.5-2.4,9.2-1.8c2.6,2.2,4,5.8,4.3,10.6l0,0
	c0.4,4.1-0.5,8.1-2.6,11.8v0.1c-1.9,4-4.5,6.9-7.8,8.7l0,0c-2.1,1-4,1.3-5.9,1c-1.1-2.4-2.4-4.7-3.9-7
	C223.2,201.3,225.1,195.4,225.5,189.4 M47.9,183.8c2.9-0.7,6.2,0,10,1.9c0,0,0.1,0,0.1,0.1c1.9,0.8,3.5,1.9,5.1,3.4l0,0
	c1.6,1.6,3,3.7,4.3,6.1c2.2,4.6,2.9,9.2,2.2,13.9l0,0c-0.7,3.9-2.4,6.7-5.1,8.5c0,0-0.1,0-0.1,0.1c-0.2,0.1-0.3,0.2-0.5,0.3l0,0
	c-2.9,1.5-6,1.4-9.3-0.2h0.1c-3.6-1.9-6.4-5.1-8.5-9.5v-0.1c-2.3-4.1-3.2-8.4-2.8-12.9l0,0C43.5,190.1,45.1,186.2,47.9,183.8z"/>
<path class="st1" d="M57.9,185.7c-3.8-2-7.1-2.6-10-1.9c-2.8,2.4-4.3,6.3-4.7,11.6l0,0c-0.4,4.5,0.5,8.8,2.8,12.9v0.1
	c2.1,4.4,4.9,7.6,8.5,9.5h-0.1c3.3,1.6,6.4,1.7,9.3,0.2l0,0c0.2-0.1,0.3-0.2,0.5-0.3c0,0,0.1,0,0.1-0.1c2.6-1.8,4.3-4.6,5.1-8.5l0,0
	c0.8-4.6,0-9.3-2.2-13.9c-1.2-2.5-2.6-4.5-4.3-6.1l0,0C61.5,187.7,59.8,186.6,57.9,185.7C58,185.8,57.9,185.7,57.9,185.7 M225.8,184
	c0,1.7-0.1,3.5-0.3,5.4c-0.5,6-2.3,11.9-5.6,17.7c1.5,2.2,2.8,4.6,3.9,7c1.9,0.3,3.9,0,5.9-1l0,0c3.3-1.8,5.9-4.7,7.8-8.7v-0.1
	c2.1-3.7,3-7.7,2.6-11.8l0,0c-0.3-4.8-1.7-8.4-4.3-10.6c-2.6-0.6-5.7,0-9.2,1.8c0,0,0,0-0.1,0C226.4,183.7,226.1,183.8,225.8,184
	 M204.7,177.8l-0.1-0.1c-2.1-4.1-5.1-7.4-9-9.8l0,0c-3.4-2.2-7.2-3.2-11.3-3.1c-10,0.2-22,6.5-36.1,19.1c-0.2,0.2-0.4,0.3-0.6,0.3
	c-0.2,0-0.5,0-0.7-0.1c-0.2-0.1-0.4-0.2-0.5-0.4c-9.2-12.1-26-15.1-50.3-9l-5.1,1.4c-4.2,1.2-7.3,3.9-9.2,8
	c-6.9,14.6-6.3,26.7,1.7,36.4c0.2,0.2,0.3,0.5,0.3,0.8s-0.1,0.6-0.3,0.8c-0.2,0.2-0.4,0.4-0.7,0.4c-4.9,1.1-9.1,2.8-12.4,5.2
	c-6.6,4.8-10.1,12.4-10.6,22.6c-0.3,7.2,1,13.6,3.9,19.3l0,0v0.1c3,5.7,7.6,10.8,13.9,15c9.1,6.2,18.4,9.9,27.8,11.3
	c12.9,1.8,26.1-0.8,39.7-7.9c0.7-0.4,1.5-0.7,2.2-1.1l0,0c5.1-2.5,10.3-4.7,15.7-6.6c0.3-0.1,0.6-0.1,0.9,0
	c25.4,11.6,43.9,5.5,55.5-18.1l0,0c0.5-1,0.9-2,1.3-3v-0.1c0.1-0.1,0.1-0.2,0.1-0.3l0.3-0.8c1.4-4.3,2-8.8,1.8-13.6
	c-0.8-14.8-5.9-25.4-15.4-31.7c-0.2-0.1-0.3-0.3-0.4-0.4c-0.1-0.2-0.2-0.4-0.2-0.6l0,0c0-0.2,0-0.3,0.1-0.5c0.3-0.7,0.5-1.4,0.7-2.3
	C210.8,195.9,209.9,185.5,204.7,177.8 M152.8,235.5c-0.2,0.2-0.5,0.4-0.9,0.4c1.6-3.4,3.2-6.7,4.8-10c0.1-0.2,0.2-0.4,0.3-0.6
	C157,228.2,155.6,231.6,152.8,235.5 M147.5,237.5c-0.4,0.1-0.7,0-1-0.2c-3.6-3.1-5.8-6-6.5-8.9c0.1,0.2,0.3,0.4,0.4,0.5
	C142.7,231.8,145.1,234.6,147.5,237.5z"/>
<path class="st2" d="M146.5,237.3c0.2,0.2,0.5,0.3,1,0.2c-2.4-2.9-4.7-5.7-7.1-8.5c-0.1-0.2-0.3-0.3-0.4-0.5
	C140.7,231.3,142.9,234.3,146.5,237.3"/>
<path class="st2" d="M151.9,235.9c0.4-0.1,0.7-0.2,0.9-0.4c2.8-3.8,4.2-7.2,4.2-10.1c-0.1,0.2-0.2,0.4-0.3,0.6
	C155.1,229.2,153.5,232.5,151.9,235.9"/>
<path class="st2" d="M147.7,256.2c1.4-1.1,2.6-2.3,3.8-3.7c7.9,7.5,15.2,8.8,21.9,3.9c0.9-0.7,1.8-1.4,2.6-2.3
	c1.7-1.7,2.1-3.2,1.4-4.6c-1.4,1.6-2.8,3.4-4.3,5.2c-0.6,0.7-1.2,1.5-1.9,2.3c-8.1,0.8-14.7-1.5-19.7-7.1c-9.6,11.8-19,12.5-28.1,2
	c-0.1-0.2-0.3-0.3-0.5-0.4c0.1,4.2,3.3,7.1,9.6,8.6C138.2,261.5,143.2,260.2,147.7,256.2z"/>
<path class="st3" d="M210.1,141.6c-4.6-5.6-11.4-9.8-20.3-12.5c-9.1-2.8-17.6-4.5-25.4-5.3c-11.3-1.2-22.5-0.8-33.6,1.2
	c-8.5,1.5-16.2,3.5-23.2,5.9l0,0c-6.9,2.4-13.9,6.7-21,12.9c-7.1,6.2-12.4,13-16,20.3s-5.4,14.7-5.3,22.2c0,0.5,0,1,0,1.5
	c1.7,1.7,3.1,3.9,4.4,6.5c2.5,5.1,3.2,10.3,2.4,15.4l0,0c-0.9,4.5-2.8,7.8-5.9,9.9c-0.7,3.9-2.1,7.7-4.2,11.3
	c-1.6,2.9-2.8,6.2-3.5,9.9c1.8-6.5,5.2-11.5,10.2-15.2c3.2-2.3,7-4,11.4-5.2c-7.6-10.1-7.8-22.6-0.8-37.5c2.3-4.8,5.9-8,10.8-9.4
	l5.1-1.4l0,0c25-6.3,42.4-3.3,52.2,8.8c14.3-12.5,26.5-18.8,36.7-18.8c4.6-0.1,8.9,1.1,12.7,3.6l0,0c4.3,2.7,7.6,6.3,9.9,10.8
	c5.6,8.2,6.6,19.2,3.2,33.1c-0.1,0.6-0.3,1.2-0.5,1.7c8.9,6.2,14,16.1,15.4,29.7c0.6-5.6,0.4-11.3-0.6-17l0,0
	c-0.3-1.9-0.8-3.8-1.5-5.6c-0.3-0.8-0.7-1.7-1-2.5c0,0,0-0.1-0.1-0.1l0,0c-1.2-2.7-2.7-5.3-4.4-7.8c-0.1-0.2-0.2-0.4-0.2-0.7
	c0-0.2,0-0.5,0.2-0.7c3.3-5.7,5.2-11.4,5.7-17.3c0.2-2.1,0.3-4.1,0.3-6v-0.1c0.1-3.6-0.1-7-0.5-10.1l0,0c-0.6-4.8-1.6-9.8-3.3-15.1
	C217.9,152.7,214.8,147.2,210.1,141.6z"/>
<radialGradient id="SVGID_1_" cx="-63.989" cy="120.0205" r="42.4822" gradientTransform="matrix(0.5507 -0.3176 0.3576 0.6204 85.2436 164.3257)" gradientUnits="userSpaceOnUse">
	<stop  offset="0" style="stop-color:#F29D88"/>
	<stop  offset="1" style="stop-color:#FACEA3"/>
</radialGradient>
<path class="st4" d="M77.3,232c-4,2.2-7.2,4.8-9.3,8c-2.4,3.7-3.7,8-3.7,13c0,1.7,0.1,3.6,0.4,5.5c2.5,17.5,11.6,27.7,27.2,30.5
	c2.2,0.4,4.5,0.7,6.9,0.9c2.3,0.1,4.4,0,6.3-0.3c2-0.3,3.9-0.8,5.5-1.5c6.6-2.8,10.4-8.9,11.6-18.2c0.5-4.2,0.5-8.2,0.1-11.8
	c-0.8-7.3-3.4-13.4-7.8-18.1c-5.5-6-13.8-9.9-24.9-11.8C85.5,228.5,81.4,229.7,77.3,232z"/>
<radialGradient id="SVGID_2_" cx="12.862" cy="157.1907" r="46.9755" gradientTransform="matrix(0.6357 0 0 0.6357 188.3186 150.9883)" gradientUnits="userSpaceOnUse">
	<stop  offset="0" style="stop-color:#F29D88"/>
	<stop  offset="1" style="stop-color:#FACEA3"/>
</radialGradient>
<path class="st5" d="M219.3,256.3c0.5-3.3,0.8-6.3,0.8-9c0-13.8-7.2-22.3-21.5-25.4c-4,0.4-8,1.9-12.1,4.7
	c-9.9,6.5-14.4,15.6-13.4,27.2c0,0.3,0.1,0.6,0.1,1c1.5-1.8,2.9-3.5,4.3-5.2c0.7,1.3,0.2,2.9-1.4,4.6c-0.9,0.9-1.7,1.6-2.6,2.3
	c0.2,1.1,0.4,2.3,0.7,3.5c3.9,16.4,12.5,22.6,25.8,18.8c1.5-0.5,3.1-1,4.7-1.7C212.8,273.4,217.7,266.5,219.3,256.3z"/>
<g id="svg--saru_x5F__x5F_g--eyes_x5F_state_x5F_close">
	<path class="st6" d="M107.5,209.6c2,0.2,16.8-1.2,16.6-1.9"/>
	<path class="st6" d="M169.5,205.8c2,0.2,16.8-1.2,16.6-1.9"/>
</g>
<g id="svg--saru_x5F__x5F_g--eyes_x5F_state_x5F_open" class="st7">
	<path class="st8" d="M177.9,196.7c-1.3,0.3-2.6,0.5-3.8,0.7c-5.1,3.5-5.9,7.7-2.5,12.7c2.4,3.6,5.4,4.1,8.9,1.6
		c8.4-6.2,7.6-11.2-2.4-15.2C178,196.7,177.9,196.7,177.9,196.7"/>
	<path class="st8" d="M179.7,198.7c1,0.2,1.7,0.8,2.1,1.7c0.1,0.2,0.1,0.4,0.1,0.6c-0.2,0.5-0.5,0.9-0.8,1.3
		c-0.1,0.2-0.3,0.3-0.5,0.4c-0.3,0.1-0.6,0.2-0.9,0.3c-1.2-0.1-1.9-0.7-2.2-1.7c-0.2-1.1,0.2-1.9,1.3-2.4
		C179.1,198.9,179.4,198.8,179.7,198.7"/>
	<path class="st8" d="M115.9,201.4c-1.3,0.3-2.6,0.5-3.8,0.7c-5.1,3.5-6,7.7-2.5,12.7c2.5,3.6,5.4,4.1,8.9,1.6
		c8.4-6.2,7.6-11.2-2.4-15.2C116,201.4,115.9,201.4,115.9,201.4"/>
	<path class="st8" d="M117.7,203.4c1,0.2,1.7,0.8,2.1,1.7c0.1,0.2,0.1,0.4,0.1,0.6c-0.2,0.5-0.5,0.9-0.8,1.3
		c-0.1,0.2-0.3,0.3-0.5,0.4c-0.3,0.1-0.6,0.2-0.9,0.3c-1.2-0.1-1.9-0.7-2.2-1.7c-0.2-1.1,0.2-1.9,1.3-2.4
		C117.1,203.6,117.4,203.5,117.7,203.4"/>
	<path class="st9" d="M181.8,200.5c-0.4-0.9-1.1-1.5-2.1-1.7c-0.3,0.1-0.6,0.1-0.9,0.3c-1.1,0.5-1.5,1.3-1.3,2.4
		c0.3,1.1,1,1.6,2.2,1.7c0.3-0.1,0.6-0.1,0.9-0.3c0.2-0.1,0.4-0.3,0.5-0.4c0.3-0.4,0.5-0.8,0.8-1.3
		C181.9,200.9,181.9,200.7,181.8,200.5 M119.8,205.2c-0.4-0.9-1.1-1.5-2.1-1.7c-0.3,0.1-0.6,0.1-0.9,0.3c-1.1,0.5-1.5,1.3-1.3,2.4
		c0.3,1.1,1,1.6,2.2,1.7c0.3-0.1,0.6-0.1,0.9-0.3c0.2-0.1,0.4-0.3,0.5-0.4c0.3-0.4,0.6-0.8,0.8-1.3
		C119.9,205.6,119.9,205.4,119.8,205.2z"/>
</g>
</svg>
