<?xml version="1.0" encoding="utf-8"?>
<!-- Generator: Adobe Illustrator 19.1.0, SVG Export Plug-In . SVG Version: 6.00 Build 0)  -->
<svg version="1.1" id="svg" xmlns="http://www.w3.org/2000/svg" xmlns:xlink="http://www.w3.org/1999/xlink" x="0px" y="0px"
	 viewBox="0 0 40.6 45.2" style="enable-background:new 0 0 40.6 45.2;" xml:space="preserve">
<style type="text/css">
	.st0{fill:#FFFFFF;}
</style>
<path id="path" class="st0" d="M7.7,32.9v2.5H0c0.2-1.5,0.2-2.9,0.2-5.4V10.6c0-2.1,0-3.3-0.2-4.7C1.8,6,2.8,6.1,5.4,6.1h11.1V5.5
	c0-2.7,0-3.9-0.3-5.5h8c-0.2,1.5-0.3,2.7-0.3,5.1v1h11.2c2.8,0,4,0,5.5-0.2c-0.1,1.4-0.2,2.6-0.2,4.7V30c0,2.7,0,4.1,0.2,5.4h-7.8
	v-2.5h-9v5.8c0,3,0.1,4.8,0.3,6.5h-8.1c0.2-1.9,0.3-3.6,0.3-6.5v-5.8H7.7z M7.7,12.6v3.7h8.8v-3.7H7.7z M7.7,22.7v3.7h8.8v-3.7H7.7z
	 M23.9,16.3h9v-3.7h-9V16.3z M23.9,26.4h9v-3.7h-9V26.4z"/>
</svg>
