<?xml version="1.0" encoding="utf-8"?>
<!-- Generator: Adobe Illustrator 19.1.0, SVG Export Plug-In . SVG Version: 6.00 Build 0)  -->
<svg version="1.1" id="svg--saru" xmlns="http://www.w3.org/2000/svg" xmlns:xlink="http://www.w3.org/1999/xlink" x="0px" y="0px"
	 viewBox="34.5 -66.8 283.5 283.5" style="enable-background:new 34.5 -66.8 283.5 283.5;" xml:space="preserve">
<style type="text/css">
	.st0{fill:#621614;}
	.st1{fill:#FACEA3;}
	.st2{fill:#040000;}
	.st3{fill:url(#SVGID_1_);}
	.st4{fill:#FFFFFF;}
	.st5{fill:url(#SVGID_2_);}
	.st6{fill:#946525;}
</style>
<g id="svg--saru_x5F__x5F_g--saru">
	<path class="st0" d="M246.7,5c-4.9-6-12.1-10.4-21.5-13.3c-9.3-2.8-17.9-4.6-25.9-5.4c-11.5-1.2-22.9-0.8-34.3,1.2
		c-8.6,1.5-16.5,3.5-23.6,6h0c-7.2,2.5-14.5,7-21.9,13.4c-7.4,6.4-12.9,13.5-16.6,21.1c-3.6,7.5-5.5,14.9-5.6,22.4
		c-1.1-0.8-2.4-1.5-3.7-2.1c-4.5-2.4-8.5-3-12-2c-0.2,0.1-0.3,0.1-0.4,0.3c-3.5,2.7-5.5,7.3-5.8,13.6v0c-0.5,5,0.6,9.8,3.1,14.3
		l0-0.1c2.4,5,5.6,8.5,9.6,10.6c0,0,0,0,0,0c3.5,1.7,6.7,2,9.8,0.9c-0.7,2.9-1.9,5.8-3.5,8.6c-3.9,6.9-5.3,16-4.3,27.6
		c0.4,4.8,2,9,4.7,12.8v0c0.4,0.5,0.8,1,1.3,1.3c3.1,6,8,11.2,14.6,15.6c9.4,6.4,19.1,10.3,28.9,11.7c13.4,1.9,27.1-0.8,41.2-8.2
		c0.7-0.4,1.4-0.7,2.2-1.1h0c4.8-2.4,9.8-4.5,14.9-6.3c26.7,12,46.1,5.4,58.3-19.6l0,0c0.5-1,0.9-2,1.3-3.1c0,0,0.1-0.1,0.1-0.2
		c1.5-4,2.7-8,3.6-12.2c1.7-8.1,1.8-16.3,0.4-24.5l0,0c-0.3-2.1-0.9-4.2-1.7-6.1c-0.1-0.2-0.2-0.4-0.3-0.6c1.9,0.1,3.9-0.4,5.9-1.4
		c0,0,0,0,0.1,0c3.7-2,6.7-5.3,8.9-9.9l0,0.1c2.4-4.2,3.3-8.6,2.9-13.3v0c-0.4-5.8-2.2-10-5.4-12.6c-0.1-0.1-0.3-0.2-0.4-0.3
		c-3.2-0.9-6.8-0.4-11,1.7c0-3-0.2-5.8-0.5-8.4l0,0c-0.6-4.9-1.7-10.1-3.4-15.6C254.9,16.7,251.6,11,246.7,5 M224.4-5.8
		c8.9,2.7,15.7,6.9,20.3,12.5c4.6,5.7,7.8,11.1,9.4,16.3c1.6,5.3,2.7,10.3,3.3,15.1v0c0.4,3.1,0.5,6.5,0.5,10.1v0.1
		c0,1.9-0.2,3.9-0.3,6c-0.5,5.9-2.3,11.7-5.7,17.3c-0.1,0.2-0.2,0.4-0.2,0.7c0,0.3,0.1,0.5,0.2,0.7c1.7,2.5,3.2,5.1,4.4,7.8v0
		c0,0.1,0.1,0.1,0.1,0.1c0.4,0.8,0.7,1.6,1,2.5c0.7,1.8,1.2,3.6,1.5,5.6v0c1,5.7,1.2,11.4,0.6,17c-1.4-13.6-6.5-23.5-15.4-29.7
		c0.2-0.5,0.4-1.1,0.5-1.7c3.4-13.9,2.3-24.9-3.2-33.1c-2.3-4.5-5.6-8.1-9.9-10.8l0,0c-3.8-2.4-8.1-3.6-12.7-3.6
		c-10.2,0-22.5,6.3-36.7,18.8c-9.8-12.1-27.2-15-52.2-8.8c0,0,0,0,0,0l-5.1,1.4c-5,1.4-8.6,4.6-10.8,9.4c-7,14.9-6.8,27.4,0.8,37.5
		c-4.4,1.2-8.3,2.9-11.4,5.2c-5,3.6-8.4,8.7-10.2,15.2c0.7-3.7,1.9-7.1,3.5-9.9c2.1-3.6,3.4-7.4,4.2-11.3c3-2.1,5-5.4,5.9-9.9v0
		c0.9-5.2,0.1-10.3-2.4-15.4c-1.3-2.6-2.7-4.7-4.4-6.5c0-0.5,0-1,0-1.5c0-7.4,1.8-14.8,5.3-22.2c3.6-7.4,8.9-14.1,16-20.3
		c7.1-6.2,14.1-10.5,21-12.9v0c7-2.4,14.7-4.4,23.2-5.9c11.1-2,22.3-2.4,33.6-1.2C206.8-10.4,215.3-8.6,224.4-5.8 M239.2,42.8
		c0,0.1,0.1,0.1,0.1,0.1c5.2,7.7,6.1,18.1,2.9,31.1c-0.2,0.8-0.4,1.6-0.7,2.3c-0.1,0.2-0.1,0.3-0.1,0.5v0c0,0.2,0.1,0.4,0.2,0.6
		c0.1,0.2,0.2,0.3,0.4,0.4c9.5,6.3,14.6,16.9,15.4,31.7c0.2,4.8-0.3,9.3-1.8,13.6l-0.3,0.8c0,0.1-0.1,0.2-0.1,0.3c0,0,0,0.1,0,0.1
		c-0.4,1-0.8,2-1.3,3v0c-11.6,23.7-30.1,29.7-55.5,18.1c-0.3-0.1-0.6-0.1-0.9,0c-5.4,1.9-10.6,4.1-15.7,6.6l0,0
		c-0.7,0.4-1.5,0.7-2.2,1.1c-13.6,7.1-26.8,9.8-39.7,7.9c-9.5-1.3-18.7-5.1-27.8-11.3c-6.3-4.3-10.9-9.3-13.9-15l0-0.1h0
		c-2.9-5.7-4.2-12.2-3.9-19.3c0.5-10.2,4-17.8,10.6-22.6c3.4-2.4,7.5-4.2,12.4-5.2c0.3-0.1,0.6-0.2,0.7-0.4c0.2-0.2,0.3-0.5,0.3-0.8
		c0-0.3-0.1-0.6-0.3-0.8c-8-9.7-8.6-21.8-1.7-36.4c1.9-4.1,5-6.8,9.2-8l5.1-1.4c24.4-6.1,41.1-3.1,50.3,9c0.1,0.2,0.3,0.3,0.5,0.4
		c0.2,0.1,0.5,0.1,0.7,0.1c0.2,0,0.4-0.1,0.6-0.3c14.1-12.6,26.2-18.9,36.1-19.1c4.1-0.1,7.9,1,11.3,3.1v0
		C234.1,35.4,237.1,38.7,239.2,42.8 M260.1,54.5c0.1-1.9,0.2-3.7,0.3-5.4c0.3-0.1,0.6-0.3,0.8-0.4c0,0,0,0,0.1,0
		c3.5-1.8,6.5-2.4,9.2-1.8c2.6,2.2,4,5.8,4.3,10.6v0c0.4,4.1-0.5,8.1-2.6,11.8c0,0,0,0.1,0,0.1c-1.9,4-4.5,6.9-7.8,8.7h0
		c-2.1,1-4,1.3-5.9,1c-1.1-2.4-2.4-4.7-3.9-7C257.8,66.4,259.7,60.5,260.1,54.5 M82.5,48.9c2.9-0.7,6.2,0,10,1.9c0,0,0.1,0,0.1,0.1
		c1.9,0.8,3.5,1.9,5.1,3.4l0,0c1.6,1.6,3,3.7,4.3,6.1c2.2,4.6,2.9,9.2,2.2,13.9v0c-0.7,3.9-2.4,6.7-5.1,8.5c0,0-0.1,0-0.1,0.1
		c-0.2,0.1-0.3,0.2-0.5,0.3c0,0,0,0,0,0c-2.9,1.5-6,1.4-9.3-0.2h0.1c-3.6-1.9-6.4-5.1-8.5-9.5c0,0,0-0.1,0-0.1
		c-2.3-4.1-3.2-8.4-2.8-12.9v0C78.1,55.2,79.7,51.3,82.5,48.9z"/>
	<path class="st1" d="M92.5,50.8c-3.8-2-7.1-2.6-10-1.9c-2.8,2.4-4.3,6.3-4.7,11.6v0c-0.4,4.5,0.5,8.8,2.8,12.9c0,0,0,0.1,0,0.1
		c2.1,4.4,4.9,7.6,8.5,9.5h-0.1c3.3,1.6,6.4,1.7,9.3,0.2c0,0,0,0,0,0c0.2-0.1,0.3-0.2,0.5-0.3c0,0,0.1,0,0.1-0.1
		c2.6-1.8,4.3-4.6,5.1-8.5v0c0.8-4.6,0-9.3-2.2-13.9c-1.2-2.5-2.6-4.5-4.3-6.1l0,0C96.1,52.8,94.4,51.7,92.5,50.8
		C92.6,50.9,92.5,50.8,92.5,50.8 M260.4,49.1c0,1.7-0.1,3.5-0.3,5.4c-0.5,6-2.3,11.9-5.6,17.7c1.5,2.2,2.8,4.6,3.9,7
		c1.9,0.3,3.9,0,5.9-1h0c3.3-1.8,5.9-4.7,7.8-8.7c0,0,0-0.1,0-0.1c2.1-3.7,3-7.7,2.6-11.8v0c-0.3-4.8-1.7-8.4-4.3-10.6
		c-2.6-0.6-5.7,0-9.2,1.8c0,0,0,0-0.1,0C261,48.8,260.7,48.9,260.4,49.1 M239.3,42.9c0,0-0.1-0.1-0.1-0.1c-2.1-4.1-5.1-7.4-9-9.8v0
		c-3.4-2.2-7.2-3.2-11.3-3.1c-10,0.2-22,6.5-36.1,19.1c-0.2,0.2-0.4,0.3-0.6,0.3c-0.2,0-0.5,0-0.7-0.1c-0.2-0.1-0.4-0.2-0.5-0.4
		c-9.2-12.1-26-15.1-50.3-9l-5.1,1.4c-4.2,1.2-7.3,3.9-9.2,8c-6.9,14.6-6.3,26.7,1.7,36.4c0.2,0.2,0.3,0.5,0.3,0.8
		c0,0.3-0.1,0.6-0.3,0.8c-0.2,0.2-0.4,0.4-0.7,0.4c-4.9,1.1-9.1,2.8-12.4,5.2c-6.6,4.8-10.1,12.4-10.6,22.6
		c-0.3,7.2,1,13.6,3.9,19.3h0l0,0.1c3,5.7,7.6,10.8,13.9,15c9.1,6.2,18.4,9.9,27.8,11.3c12.9,1.8,26.1-0.8,39.7-7.9
		c0.7-0.4,1.5-0.7,2.2-1.1l0,0c5.1-2.5,10.3-4.7,15.7-6.6c0.3-0.1,0.6-0.1,0.9,0c25.4,11.6,43.9,5.5,55.5-18.1v0c0.5-1,0.9-2,1.3-3
		c0,0,0-0.1,0-0.1c0.1-0.1,0.1-0.2,0.1-0.3l0.3-0.8c1.4-4.3,2-8.8,1.8-13.6c-0.8-14.8-5.9-25.4-15.4-31.7c-0.2-0.1-0.3-0.3-0.4-0.4
		c-0.1-0.2-0.2-0.4-0.2-0.6v0c0-0.2,0-0.3,0.1-0.5c0.3-0.7,0.5-1.4,0.7-2.3C245.4,61,244.5,50.6,239.3,42.9 M254.7,112.4
		c0,2.7-0.3,5.7-0.8,9c-1.6,10.2-6.5,17.1-14.7,20.6c-1.6,0.7-3.2,1.3-4.7,1.7c-13.3,3.9-21.9-2.4-25.8-18.8
		c-0.3-1.2-0.5-2.3-0.7-3.5c-6.7,4.9-14,3.6-21.9-3.9c-1.2,1.3-2.4,2.6-3.8,3.7c-4.4,4-9.5,5.3-15.1,4c-6.3-1.6-9.5-4.4-9.6-8.6
		c0.2,0.1,0.4,0.2,0.5,0.4c9.1,10.5,18.5,9.8,28.1-2c5,5.6,11.6,7.9,19.7,7.1c0.6-0.8,1.3-1.5,1.9-2.3c0-0.3-0.1-0.6-0.1-1
		c-1-11.6,3.5-20.7,13.4-27.2c4.1-2.8,8.2-4.4,12.1-4.7C247.5,90.1,254.7,98.6,254.7,112.4 M146.6,67.2c1.3-0.2,2.6-0.4,3.8-0.7
		c0.1,0,0.1-0.1,0.1-0.2c10,4,10.8,9,2.4,15.2c-3.5,2.6-6.4,2-8.9-1.6C140.7,74.9,141.5,70.7,146.6,67.2 M208.6,62.5
		c1.3-0.2,2.6-0.4,3.8-0.7c0.1,0,0.1-0.1,0.1-0.2c10,4,10.8,9,2.4,15.2c-3.5,2.6-6.5,2-8.9-1.6C202.7,70.2,203.5,66,208.6,62.5
		 M102.6,105.1c2.2-3.2,5.3-5.9,9.3-8c4-2.2,8.2-3.5,12.4-3.8c11.1,1.9,19.4,5.8,24.9,11.8c4.4,4.8,6.9,10.8,7.8,18.1
		c0.4,3.6,0.4,7.6-0.1,11.8c-1.2,9.3-5,15.4-11.6,18.2c-1.7,0.7-3.5,1.2-5.5,1.5c-1.9,0.3-4.1,0.4-6.3,0.3c-2.4-0.2-4.7-0.4-6.9-0.9
		c-15.7-2.8-24.7-13-27.2-30.5c-0.2-1.9-0.4-3.8-0.4-5.5C99,113.1,100.2,108.8,102.6,105.1 M187.4,100.6c-0.2,0.2-0.5,0.4-0.9,0.4
		c1.6-3.4,3.2-6.7,4.8-10c0.1-0.2,0.2-0.4,0.3-0.6C191.6,93.3,190.2,96.7,187.4,100.6 M182.1,102.6c-0.4,0.1-0.7,0-1-0.2
		c-3.6-3.1-5.8-6-6.5-8.9c0.1,0.2,0.3,0.4,0.4,0.5C177.3,96.9,179.7,99.7,182.1,102.6z"/>
	<path class="st2" d="M181.1,102.4c0.2,0.2,0.5,0.3,1,0.2c-2.4-2.9-4.7-5.7-7.1-8.5c-0.1-0.2-0.3-0.3-0.4-0.5
		C175.3,96.4,177.5,99.4,181.1,102.4 M186.5,101c0.4-0.1,0.7-0.2,0.9-0.4c2.8-3.8,4.2-7.2,4.2-10.1c-0.1,0.2-0.2,0.4-0.3,0.6
		C189.7,94.3,188.1,97.6,186.5,101 M212.5,61.8c-1.3,0.3-2.6,0.5-3.8,0.7c-5.1,3.5-5.9,7.7-2.5,12.7c2.4,3.6,5.4,4.1,8.9,1.6
		c8.4-6.2,7.6-11.2-2.4-15.2C212.6,61.8,212.5,61.8,212.5,61.8 M214.3,63.8c1,0.2,1.7,0.8,2.1,1.7c0.1,0.2,0.1,0.4,0.1,0.6
		c-0.2,0.5-0.5,0.9-0.8,1.3c-0.1,0.2-0.3,0.3-0.5,0.4c-0.3,0.1-0.6,0.2-0.9,0.3c-1.2-0.1-1.9-0.7-2.2-1.7c-0.2-1.1,0.2-1.9,1.3-2.4
		C213.7,64,214,63.9,214.3,63.8 M150.5,66.5c-1.3,0.3-2.6,0.5-3.8,0.7c-5.1,3.5-6,7.7-2.5,12.7c2.5,3.6,5.4,4.1,8.9,1.6
		c8.4-6.2,7.6-11.2-2.4-15.2C150.6,66.5,150.5,66.5,150.5,66.5 M152.3,68.5c1,0.2,1.7,0.8,2.1,1.7c0.1,0.2,0.1,0.4,0.1,0.6
		c-0.2,0.5-0.5,0.9-0.8,1.3c-0.1,0.2-0.3,0.3-0.5,0.4c-0.3,0.1-0.6,0.2-0.9,0.3c-1.2-0.1-1.9-0.7-2.2-1.7c-0.2-1.1,0.2-1.9,1.3-2.4
		C151.7,68.7,152,68.6,152.3,68.5 M182.3,121.3c1.4-1.1,2.6-2.3,3.8-3.7c7.9,7.5,15.2,8.8,21.9,3.9c0.9-0.7,1.8-1.4,2.6-2.3
		c1.7-1.7,2.1-3.2,1.4-4.6c-1.4,1.6-2.8,3.4-4.3,5.2c-0.6,0.7-1.2,1.5-1.9,2.3c-8.1,0.8-14.7-1.5-19.7-7.1c-9.6,11.8-19,12.5-28.1,2
		c-0.1-0.2-0.3-0.3-0.5-0.4c0.1,4.2,3.3,7.1,9.6,8.6C172.8,126.6,177.8,125.3,182.3,121.3z"/>
	
		<radialGradient id="SVGID_1_" cx="89.1796" cy="438.5584" r="42.4822" gradientTransform="matrix(0.5507 -0.3176 -0.3576 -0.6204 235.2783 424.5907)" gradientUnits="userSpaceOnUse">
		<stop  offset="0" style="stop-color:#F29D88"/>
		<stop  offset="1" style="stop-color:#FACEA3"/>
	</radialGradient>
	<path class="st3" d="M111.9,97.1c-4,2.2-7.2,4.8-9.3,8c-2.4,3.7-3.7,8-3.7,13c0,1.7,0.1,3.6,0.4,5.5c2.5,17.5,11.6,27.7,27.2,30.5
		c2.2,0.4,4.5,0.7,6.9,0.9c2.3,0.1,4.4,0,6.3-0.3c2-0.3,3.9-0.8,5.5-1.5c6.6-2.8,10.4-8.9,11.6-18.2c0.5-4.2,0.5-8.2,0.1-11.8
		c-0.8-7.3-3.4-13.4-7.8-18.1c-5.5-6-13.8-9.9-24.9-11.8C120.1,93.6,116,94.8,111.9,97.1z"/>
	<path class="st4" d="M216.4,65.6c-0.4-0.9-1.1-1.5-2.1-1.7c-0.3,0.1-0.6,0.1-0.9,0.3c-1.1,0.5-1.5,1.3-1.3,2.4
		c0.3,1.1,1,1.6,2.2,1.7c0.3-0.1,0.6-0.1,0.9-0.3c0.2-0.1,0.4-0.3,0.5-0.4c0.3-0.4,0.5-0.8,0.8-1.3C216.5,66,216.5,65.8,216.4,65.6
		 M154.4,70.3c-0.4-0.9-1.1-1.5-2.1-1.7c-0.3,0.1-0.6,0.1-0.9,0.3c-1.1,0.5-1.5,1.3-1.3,2.4c0.3,1.1,1,1.6,2.2,1.7
		c0.3-0.1,0.6-0.1,0.9-0.3c0.2-0.1,0.4-0.3,0.5-0.4c0.3-0.4,0.6-0.8,0.8-1.3C154.5,70.7,154.5,70.5,154.4,70.3z"/>
	
		<radialGradient id="SVGID_2_" cx="67.2935" cy="474.6245" r="47.0391" gradientTransform="matrix(0.6357 0 0 -0.6357 188.3186 417.6726)" gradientUnits="userSpaceOnUse">
		<stop  offset="0" style="stop-color:#F29D88"/>
		<stop  offset="1" style="stop-color:#FACEA3"/>
	</radialGradient>
	<path class="st5" d="M253.9,121.4c0.5-3.3,0.8-6.3,0.8-9c0-13.8-7.2-22.3-21.5-25.4c-4,0.4-8,1.9-12.1,4.7
		c-9.9,6.5-14.4,15.6-13.4,27.2c0,0.3,0.1,0.6,0.1,1c1.5-1.8,2.9-3.5,4.3-5.2c0.7,1.3,0.2,2.9-1.4,4.6c-0.9,0.9-1.7,1.6-2.6,2.3
		c0.2,1.1,0.4,2.3,0.7,3.5c3.9,16.4,12.5,22.6,25.8,18.8c1.5-0.5,3.1-1,4.7-1.7C247.4,138.5,252.3,131.6,253.9,121.4z"/>
	<path class="st6" d="M244.7,6.7c-4.6-5.6-11.4-9.8-20.3-12.5c-9.1-2.8-17.6-4.5-25.4-5.3c-11.3-1.2-22.5-0.8-33.6,1.2
		c-8.5,1.5-16.2,3.5-23.2,5.9v0c-6.9,2.4-13.9,6.7-21,12.9c-7.1,6.2-12.4,13-16,20.3c-3.6,7.3-5.4,14.7-5.3,22.2c0,0.5,0,1,0,1.5
		c1.7,1.7,3.1,3.9,4.4,6.5c2.5,5.1,3.2,10.3,2.4,15.4v0c-0.9,4.5-2.8,7.8-5.9,9.9c-0.7,3.9-2.1,7.7-4.2,11.3
		c-1.6,2.9-2.8,6.2-3.5,9.9c1.8-6.5,5.2-11.5,10.2-15.2c3.2-2.3,7-4,11.4-5.2c-7.6-10.1-7.8-22.6-0.8-37.5c2.3-4.8,5.9-8,10.8-9.4
		l5.1-1.4c0,0,0,0,0,0c25-6.3,42.4-3.3,52.2,8.8c14.3-12.5,26.5-18.8,36.7-18.8c4.6-0.1,8.9,1.1,12.7,3.6l0,0
		c4.3,2.7,7.6,6.3,9.9,10.8c5.6,8.2,6.6,19.2,3.2,33.1c-0.1,0.6-0.3,1.2-0.5,1.7c8.9,6.2,14,16.1,15.4,29.7c0.6-5.6,0.4-11.3-0.6-17
		v0c-0.3-1.9-0.8-3.8-1.5-5.6c-0.3-0.8-0.7-1.7-1-2.5c0,0,0-0.1-0.1-0.1v0c-1.2-2.7-2.7-5.3-4.4-7.8c-0.1-0.2-0.2-0.4-0.2-0.7
		c0-0.2,0-0.5,0.2-0.7c3.3-5.7,5.2-11.4,5.7-17.3c0.2-2.1,0.3-4.1,0.3-6v-0.1c0.1-3.6-0.1-7-0.5-10.1v0c-0.6-4.8-1.6-9.8-3.3-15.1
		C252.5,17.8,249.4,12.3,244.7,6.7z"/>
</g>
</svg>
