<?xml version="1.0" encoding="utf-8"?>
<!-- Generator: Adobe Illustrator 19.2.1, SVG Export Plug-In . SVG Version: 6.00 Build 0)  -->
<svg version="1.1" id="svg" xmlns="http://www.w3.org/2000/svg" xmlns:xlink="http://www.w3.org/1999/xlink" x="0px" y="0px"
   viewBox="0 0 2048 2048" style="enable-background:new 0 0 2048 2048;" xml:space="preserve">
<style type="text/css">
  .bg {
    fill:#1DA1F2;
  }
  .glow {
    fill:#FFFFFF;
  }
</style>

<defs>
  <path id="outside" class="outside" d="M0,0v2048h2048V0H0z M1580,838c0.6,12.4,0.6,24.8,0.6,37.2c0,381-290.4,821.2-821.2,821.2
    c-162.6,0-314.6-47.8-441.4-128.8c22.4,2.8,45.6,4,68.6,4c135.2,0,259.6-46.2,358.6-123.8c-126-2.2-233-85.6-269.6-200.4
    c17.4,3.4,35.4,5,54,5c26.4,0,51.8-3.4,76-10.2c-131.8-26.4-231.4-143.4-231.4-283c0-1.8,0-2.8,0-4c38.8,21.4,83.4,34.4,130.6,36
    C427.6,939.4,376.4,851,376.4,750.8c0-53,14-102.4,38.8-145.2C557.6,780,770.2,895.4,1010,907.2c-4.6-21.4-7.4-43.2-7.4-65.8
    c0-159.4,129.6-288.8,288.8-288.8c82.6,0,157.4,35,210.4,91.2c65.8-13,127.6-36.6,183.4-69.8c-22,67.6-67.6,124.4-127.2,159.8
    c58.6-7.4,114.2-22.6,166-45.6C1685.2,746.2,1636.2,797.4,1580,838z" filter="url(#drop-shadow)" />
</defs>

<filter id="drop-shadow" x="0" y="0" width="100%" height="100%">
  <feOffset result="offOut" in="SourceGraphic" dx="0" dy="0" />
  <feGaussianBlur result="blurOut" in="offOut" stdDeviation="10" />
  <feBlend in="SourceGraphic" in2="blurOut" mode="normal" />
</filter>

<rect class="bg" width="2048" height="2048"/>
<image style="overflow:visible;enable-background:new    ;" width="523" height="396" xlink:href="cloud/cloud--1.png"  transform="matrix(0.6214 0 0 0.6214 1116.0352 1199.6019)">
</image>
<image style="overflow:visible;enable-background:new    ;" width="517" height="334" xlink:href="cloud/cloud--2.png"  transform="matrix(0.6214 0 0 0.6214 904.8624 963.6975)">
</image>
<image style="overflow:visible;enable-background:new    ;" width="1040" height="522" xlink:href="cloud/cloud--3.png"  transform="matrix(0.6214 0 0 0.6214 419.186 1115.3353)">
</image>
<image style="overflow:visible;enable-background:new    ;" width="1544" height="676" xlink:href="cloud/cloud--4.png"  transform="matrix(0.6214 0 0 0.6214 1024.4554 857.4265)">
</image>
<image style="overflow:visible;enable-background:new    ;" width="2289" height="1204" xlink:href="cloud/cloud--5.png"  transform="matrix(0.6214 0 0 0.6214 307.5586 1374.7742)">
</image>
<image style="overflow:visible;enable-background:new    ;" width="2023" height="747" xlink:href="cloud/cloud--6.png"  transform="matrix(0.6214 0 0 0.6214 276.2488 603.2467)">
</image>

<clipPath id="clip-path">
  <use id="mask" class="mask" xlink:href="#outside"></use>
</clipPath>

<use id="glow" class="glow" xlink:href="#outside"></use>

<image xlink:href="bg.jpg" clip-path="url(#clip-path)" width="2048px" height="2048px"></image>
</svg>
