<?xml version="1.0" encoding="utf-8"?>
<!-- Generator: Adobe Illustrator 17.0.2, SVG Export Plug-In . SVG Version: 6.00 Build 0)  -->
<!DOCTYPE svg PUBLIC "-//W3C//DTD SVG 1.1//EN" "http://www.w3.org/Graphics/SVG/1.1/DTD/svg11.dtd">
<svg version="1.1" id="g" xmlns="http://www.w3.org/2000/svg" xmlns:xlink="http://www.w3.org/1999/xlink" x="0px" y="0px"
	 width="200px" height="50px" viewBox="0 0 200 50" enable-background="new 0 0 200 50" xml:space="preserve">
<text id="powered_by_Googwool" transform="matrix(1 0 0 1 66.7451 15.3238)"><tspan x="0" y="0" fill="#676867" font-family="'Roboto-Regular'" font-size="15.589">powered by</tspan><tspan x="0" y="26.414" fill="#676867" font-family="'Roboto-Regular'" font-size="26.724">Googwool</tspan></text>
<g id="logo">
	<g>
		<path fill="#EBC451" d="M38.552,5.101c3.57,0.801,6.499,2.663,8.821,5.487c0.054,0.066,0.112,0.128,0.169,0.191
			c0.012-0.063-0.006-0.106-0.03-0.144c-1.364-2.172-3.057-4.034-5.209-5.447c-3.45-2.264-7.214-3.083-11.26-2.198
			c-5.156,1.129-9.037,4.592-10.693,9.197c-0.369,2.346,0,3.801,0.378,5.373C21.661,8.073,31.107,3.431,38.552,5.101z"/>
		<path fill="#EBC451" d="M25.815,13.971c2.018-2.784,6.395-5.3,10.815-5.554c1.655-0.095,3.281,0.14,4.867,0.617
			c3.316,0.998,6.033,2.885,8.207,5.568c0.064,0.079,0.13,0.155,0.196,0.233c0.018-0.063,0.003-0.097-0.016-0.13
			c-1.245-2.145-2.8-4.026-4.816-5.486c-3.833-2.776-8.069-3.665-12.641-2.393c-4.787,1.332-9.505,4.328-11.101,13.128
			c0,0,0.545,2.198,1.142,2.855C22.992,19.002,23.693,16.9,25.815,13.971z"/>
		<path fill="#EBC451" d="M30.621,15.068c3.11-2.462,8.039-3.677,12.637-2.546c3.319,0.816,6.037,2.626,8.24,5.225
			c0.074,0.087,0.149,0.173,0.223,0.26c0.005-0.096-0.023-0.168-0.065-0.231c-0.404-0.603-0.781-1.226-1.221-1.802
			c-3.421-4.48-8.887-6.753-14.473-5.749c-3.668,0.659-6.704,2.419-9.028,5.352c-0.936,1.181-2.717,3.79-3.576,8.369
			c0,0,0.761,1,1.467,1.815C25.877,20.068,27.472,17.561,30.621,15.068z"/>
		<path fill="#EBC451" d="M28.215,24.47c0.726-1.787,1.707-3.416,3.121-4.739c3.545-3.316,7.748-4.609,12.533-3.861
			c3.731,0.583,6.847,2.36,9.375,5.164c0.282,0.313,0.545,0.643,0.817,0.966c-0.018-0.1-0.06-0.186-0.106-0.271
			c-0.391-0.708-0.834-1.381-1.324-2.023c-3.463-4.535-9.116-6.817-14.7-5.892c-3.509,0.581-6.424,2.244-8.71,4.978
			c-1.034,1.237-2.877,3.349-3.687,7.844L27.176,28C27.236,27.84,28.151,24.628,28.215,24.47z"/>
		<path fill="#EBC451" d="M54.466,22.811c-5.203-5.49-9.827-5.98-15.398-5.017c-4.628,0.8-9.49,5.017-10.957,10.774
			c0,0,1.396,0.815,1.778,0.815C34.226,17.561,46.32,17.848,54.466,22.811z"/>
	</g>
	<g>
		<path fill="#375697" d="M12.981,34.911c-1.091-3.492-0.944-6.96,0.342-10.382c0.03-0.08,0.054-0.161,0.082-0.242
			c-0.061,0.021-0.089,0.058-0.11,0.098c-1.199,2.267-1.966,4.664-2.113,7.234c-0.236,4.12,0.936,7.789,3.727,10.85
			c3.555,3.901,8.496,5.53,13.312,4.662c2.217-0.853,3.292-1.901,4.464-3.014C24.001,48.052,15.257,42.194,12.981,34.911z"/>
		<path fill="#375697" d="M27.031,41.506c-3.42-0.355-7.788-2.888-10.217-6.589c-0.91-1.386-1.519-2.911-1.899-4.524
			c-0.794-3.371-0.518-6.667,0.719-9.892c0.036-0.095,0.069-0.191,0.104-0.286c-0.063,0.016-0.086,0.046-0.104,0.079
			c-1.235,2.151-2.087,4.437-2.343,6.913c-0.488,4.708,0.861,8.821,4.249,12.144c3.547,3.479,8.501,6.067,16.92,3.05
			c0,0,1.631-1.571,1.901-2.417C32.799,41.436,30.629,41.88,27.031,41.506z"/>
		<path fill="#375697" d="M25.579,36.796c-3.687-1.462-7.203-5.123-8.523-9.671c-0.952-3.282-0.744-6.541,0.405-9.749
			c0.038-0.107,0.076-0.215,0.113-0.323c-0.085,0.044-0.134,0.104-0.167,0.172c-0.32,0.651-0.671,1.29-0.95,1.958
			c-2.17,5.203-1.405,11.073,2.258,15.408c2.405,2.847,5.447,4.596,9.149,5.143c1.491,0.22,4.641,0.458,9.036-1.088
			c0,0,0.486-1.159,0.838-2.178C32.28,38.404,29.312,38.277,25.579,36.796z"/>
		<path fill="#375697" d="M34.924,34.178c-1.911,0.264-3.812,0.23-5.665-0.334c-4.644-1.412-7.866-4.405-9.61-8.923
			c-1.36-3.523-1.38-7.11-0.215-10.701c0.13-0.401,0.285-0.794,0.428-1.19c-0.077,0.065-0.132,0.145-0.181,0.227
			c-0.418,0.692-0.779,1.412-1.09,2.158c-2.196,5.266-1.346,11.303,2.248,15.677c2.258,2.748,5.155,4.442,8.666,5.054
			c1.589,0.277,4.339,0.817,8.637-0.729l0.359-2.104C38.332,33.341,35.092,34.155,34.924,34.178z"/>
		<path fill="#375697" d="M20.361,12.274c-2.153,7.251-0.266,11.501,3.354,15.844c3.007,3.608,9.09,5.71,14.809,4.102
			c0,0,0.008-1.617-0.183-1.947C25.935,32.427,20.136,21.81,20.361,12.274z"/>
	</g>
	<g>
		<path fill="#32A56C" d="M51.424,42.279c-2.478,2.691-5.556,4.297-9.162,4.895c-0.084,0.014-0.167,0.033-0.25,0.05
			c0.049,0.043,0.094,0.048,0.14,0.046c2.563-0.095,5.022-0.63,7.321-1.788c3.686-1.856,6.277-4.705,7.533-8.653
			c1.601-5.03,0.542-10.123-2.619-13.859c-1.847-1.493-3.292-1.901-4.842-2.359C57.295,26.165,56.593,36.667,51.424,42.279z"/>
		<path fill="#32A56C" d="M50.111,26.814c1.403,3.139,1.392,8.188-0.598,12.143c-0.745,1.48-1.762,2.771-2.968,3.907
			c-2.522,2.373-5.515,3.782-8.926,4.323c-0.1,0.016-0.2,0.035-0.3,0.053c0.045,0.047,0.083,0.051,0.121,0.051
			c2.48-0.006,4.886-0.412,7.159-1.427c4.321-1.931,7.209-5.156,8.393-9.751c1.24-4.812,1.004-10.396-5.819-16.178
			c0,0-2.176-0.627-3.044-0.438C47.165,21.854,48.635,23.511,50.111,26.814z"/>
		<path fill="#32A56C" d="M46.758,30.427c0.577,3.924-0.835,8.8-4.114,12.217c-2.366,2.466-5.293,3.915-8.645,4.524
			c-0.112,0.02-0.224,0.042-0.337,0.063c0.081,0.052,0.157,0.064,0.233,0.059c0.724-0.048,1.452-0.063,2.171-0.156
			c5.59-0.722,10.292-4.32,12.215-9.66c1.263-3.506,1.257-7.016-0.121-10.495c-0.555-1.401-1.924-4.248-5.46-7.281
			c0,0-1.247,0.159-2.305,0.363C44.8,23.819,46.173,26.453,46.758,30.427z"/>
		<path fill="#32A56C" d="M39.818,23.643c1.184,1.523,2.105,3.186,2.543,5.073c1.099,4.728,0.118,9.015-2.923,12.784
			c-2.371,2.939-5.467,4.75-9.16,5.537c-0.412,0.088-0.83,0.15-1.245,0.224c0.095,0.034,0.191,0.042,0.287,0.044
			c0.808,0.016,1.613-0.032,2.414-0.135c5.659-0.732,10.462-4.486,12.453-9.785c1.251-3.329,1.269-6.686,0.044-10.032
			c-0.555-1.514-1.462-4.166-4.95-7.116l-2.001,0.741C37.389,21.109,39.714,23.508,39.818,23.643z"/>
		<path fill="#32A56C" d="M28.13,47.206c7.356-1.761,10.093-5.52,12.044-10.827c1.621-4.408,0.4-10.728-3.852-14.876
			c0,0-1.404,0.802-1.595,1.132C42.796,32.302,36.501,42.633,28.13,47.206z"/>
	</g>
</g>
</svg>
